<svg width="41" height="41" viewBox="0 0 41 41" fill="none" xmlns="http://www.w3.org/2000/svg">
<path d="M6.83325 10.25C6.83325 13.0807 12.9525 15.375 20.4999 15.375C28.0473 15.375 34.1666 13.0807 34.1666 10.25M6.83325 10.25C6.83325 7.41929 12.9525 5.125 20.4999 5.125C28.0473 5.125 34.1666 7.41929 34.1666 10.25M6.83325 10.25V20.5M34.1666 10.25V19.6458M6.83325 20.5C6.83325 23.3307 12.9525 25.625 20.4999 25.625M6.83325 20.5V30.75C6.83325 33.5807 12.9525 35.875 20.4999 35.875M34.5083 34.5083L37.5833 37.5833M25.6249 30.75C25.6249 32.1092 26.1649 33.4128 27.126 34.3739C28.0871 35.335 29.3907 35.875 30.7499 35.875C32.1092 35.875 33.4127 35.335 34.3738 34.3739C35.335 33.4128 35.8749 32.1092 35.8749 30.75C35.8749 29.3908 35.335 28.0872 34.3738 27.1261C33.4127 26.165 32.1092 25.625 30.7499 25.625C29.3907 25.625 28.0871 26.165 27.126 27.1261C26.1649 28.0872 25.6249 29.3908 25.6249 30.75Z" stroke="#FF310C" stroke-width="3.41667" stroke-linecap="round" stroke-linejoin="round"/>
</svg>
