<svg width="45" height="45" viewBox="0 0 45 45" fill="none" xmlns="http://www.w3.org/2000/svg">
<path d="M24.375 29.0625V16.875C24.375 16.3777 24.5725 15.9008 24.9242 15.5492C25.2758 15.1975 25.7527 15 26.25 15H37.5C37.9973 15 38.4742 15.1975 38.8258 15.5492C39.1775 15.9008 39.375 16.3777 39.375 16.875V24.375M39.375 35.625C39.375 36.1223 39.1775 36.5992 38.8258 36.9508C38.4742 37.3025 37.9973 37.5 37.5 37.5M33.75 15V9.375C33.75 8.87772 33.5525 8.40081 33.2008 8.04918C32.8492 7.69754 32.3723 7.5 31.875 7.5H7.5C7.00272 7.5 6.52581 7.69754 6.17417 8.04918C5.82254 8.40081 5.625 8.87772 5.625 9.375V31.875C5.625 32.3723 5.82254 32.8492 6.17417 33.2008C6.52581 33.5525 7.00272 33.75 7.5 33.75H20.625M37.5 39.375L41.25 35.625L37.5 31.875M31.875 31.875L28.125 35.625L31.875 39.375M30 16.875H33.75" stroke="#FF310C" stroke-width="3.75" stroke-linecap="round" stroke-linejoin="round"/>
</svg>
