<svg width="168" height="50" viewBox="0 0 168 50" fill="none" xmlns="http://www.w3.org/2000/svg">
<path d="M65.2867 16.8774C66.3083 16.8774 67.2163 16.9933 68.0108 17.225C68.8099 17.4568 69.4819 17.7885 70.0267 18.2202C70.5761 18.6474 70.9938 19.1677 71.2798 19.7811C71.5659 20.39 71.7089 21.0739 71.7089 21.8328H69.012C69.012 21.4466 68.9302 21.0967 68.7668 20.7831C68.6079 20.465 68.3695 20.1946 68.0517 19.972C67.7384 19.7448 67.3502 19.5698 66.8871 19.4471C66.424 19.3244 65.8906 19.2631 65.2867 19.2631C64.7419 19.2631 64.2447 19.3131 63.7952 19.4131C63.3503 19.513 62.9666 19.6562 62.6443 19.8425C62.3219 20.0242 62.0722 20.2446 61.8951 20.5037C61.7181 20.7581 61.6295 21.0421 61.6295 21.3557C61.6295 21.592 61.6795 21.801 61.7794 21.9828C61.8792 22.16 62.0155 22.3145 62.188 22.4463C62.3605 22.5781 62.5626 22.6917 62.7941 22.7871C63.0257 22.878 63.2731 22.9575 63.5364 23.0257C63.8043 23.0938 64.0813 23.1529 64.3673 23.2029C64.6533 23.2483 64.9348 23.2938 65.2118 23.3392L66.2197 23.496C66.6374 23.5596 67.0756 23.6346 67.5341 23.7209C67.9972 23.8027 68.4513 23.914 68.8962 24.0549C69.3457 24.1912 69.7725 24.3662 70.1765 24.5798C70.5852 24.7888 70.9438 25.0524 71.2526 25.3705C71.5613 25.6885 71.8065 26.0703 71.9881 26.5156C72.1697 26.9564 72.2605 27.4812 72.2605 28.0901C72.2605 28.8308 72.1152 29.4897 71.8247 30.0668C71.5341 30.6394 71.105 31.1234 70.5375 31.5187C69.97 31.914 69.2685 32.214 68.4331 32.4184C67.5977 32.6229 66.6329 32.7252 65.5387 32.7252C64.3991 32.7252 63.4002 32.6138 62.5421 32.3912C61.684 32.1685 60.9689 31.8413 60.3969 31.4096C59.8248 30.9779 59.3935 30.4486 59.1029 29.8215C58.8168 29.1898 58.6738 28.465 58.6738 27.6471H61.3639C61.3639 28.5105 61.7044 29.1762 62.3855 29.6442C63.0665 30.1077 64.1153 30.3395 65.5319 30.3395C66.172 30.3395 66.7418 30.2918 67.2413 30.1964C67.7407 30.1009 68.1629 29.9601 68.508 29.7737C68.8531 29.5874 69.1164 29.358 69.298 29.0853C69.4796 28.8127 69.5704 28.5014 69.5704 28.1515C69.5704 27.8788 69.5182 27.6403 69.4138 27.4358C69.3094 27.2267 69.1641 27.0472 68.9779 26.8973C68.7918 26.7428 68.5716 26.611 68.3173 26.5019C68.0676 26.3883 67.7952 26.2906 67.5001 26.2088C67.205 26.1271 66.8962 26.0566 66.5739 25.9975C66.256 25.9339 65.9337 25.8749 65.6068 25.8203L64.6057 25.6499C64.2243 25.5863 63.8202 25.5136 63.3934 25.4318C62.9666 25.3455 62.5421 25.2387 62.1199 25.1114C61.7022 24.9797 61.3004 24.8161 60.9144 24.6207C60.5331 24.4207 60.1948 24.1753 59.8997 23.8845C59.6091 23.5937 59.3753 23.2461 59.1982 22.8416C59.0257 22.4372 58.9394 21.9623 58.9394 21.417C58.9394 20.7263 59.0847 20.1015 59.3753 19.5426C59.6704 18.9836 60.0904 18.5065 60.6352 18.1112C61.1846 17.7158 61.8497 17.4113 62.6307 17.1978C63.4161 16.9842 64.3015 16.8774 65.2867 16.8774Z" fill="#FCFBFC"/>
<path d="M73.5556 24.7979C73.5556 24.0072 73.635 23.262 73.7939 22.5622C73.9528 21.8624 74.1821 21.2194 74.4818 20.6332C74.7814 20.047 75.1469 19.5221 75.5782 19.0586C76.0096 18.5906 76.4954 18.1952 77.0357 17.8726C77.5805 17.5499 78.1775 17.3046 78.8268 17.1364C79.476 16.9637 80.1662 16.8774 80.8971 16.8774C81.6327 16.8774 82.3228 16.9637 82.9675 17.1364C83.6167 17.3046 84.2115 17.5499 84.7518 17.8726C85.2966 18.1952 85.7847 18.5906 86.216 19.0586C86.6474 19.5221 87.0128 20.047 87.3125 20.6332C87.6122 21.2194 87.8414 21.8624 88.0003 22.5622C88.1593 23.262 88.2387 24.0072 88.2387 24.7979C88.2387 25.5886 88.1593 26.3338 88.0003 27.0336C87.8414 27.7334 87.6122 28.3787 87.3125 28.9694C87.0128 29.5556 86.6474 30.0805 86.216 30.544C85.7847 31.0075 85.2966 31.4028 84.7518 31.73C84.2115 32.0526 83.6167 32.298 82.9675 32.4662C82.3228 32.6388 81.6327 32.7252 80.8971 32.7252C80.1662 32.7252 79.476 32.6388 78.8268 32.4662C78.1775 32.298 77.5805 32.0526 77.0357 31.73C76.4954 31.4028 76.0096 31.0075 75.5782 30.544C75.1469 30.0805 74.7814 29.5556 74.4818 28.9694C74.1821 28.3787 73.9528 27.7334 73.7939 27.0336C73.635 26.3338 73.5556 25.5886 73.5556 24.7979ZM76.3138 24.7979C76.3138 25.6386 76.4182 26.3952 76.627 27.0677C76.8404 27.7357 77.1446 28.306 77.5396 28.7786C77.9392 29.2466 78.4227 29.6056 78.9902 29.8555C79.5578 30.1055 80.1957 30.2304 80.9039 30.2304C81.6122 30.2304 82.2479 30.1055 82.8108 29.8555C83.3784 29.6056 83.8596 29.2466 84.2546 28.7786C84.6496 28.306 84.9516 27.7357 85.1604 27.0677C85.3738 26.3952 85.4805 25.6386 85.4805 24.7979C85.4805 23.9572 85.3738 23.2029 85.1604 22.5349C84.9516 21.8624 84.6496 21.2921 84.2546 20.824C83.8596 20.356 83.3784 19.997 82.8108 19.747C82.2479 19.4971 81.6122 19.3722 80.9039 19.3722C80.1957 19.3722 79.5578 19.4971 78.9902 19.747C78.4227 19.997 77.9392 20.356 77.5396 20.824C77.1446 21.2921 76.8404 21.8624 76.627 22.5349C76.4182 23.2029 76.3138 23.9572 76.3138 24.7979Z" fill="#FCFBFC"/>
<path d="M92.8289 32.3162H90.0707V12.1401H92.8289V32.3162Z" fill="#FCFBFC"/>
<path d="M109.314 17.2864L103.927 32.3162H99.6363L94.3038 17.2864H97.1641L101.816 30.6053L106.522 17.2864H109.314Z" fill="#FCFBFC"/>
<path d="M125.089 17.2864L118.872 33.2637C118.558 34.0634 118.193 34.7541 117.775 35.3358C117.362 35.9175 116.885 36.3969 116.345 36.774C115.809 37.1557 115.208 37.4375 114.54 37.6192C113.877 37.801 113.139 37.8919 112.327 37.8919C112.104 37.8919 111.889 37.8851 111.68 37.8714C111.471 37.8578 111.269 37.8396 111.074 37.8169V35.404C111.314 35.4358 111.537 35.4585 111.741 35.4721C111.95 35.4858 112.15 35.4926 112.34 35.4926C113.248 35.4926 113.989 35.3153 114.561 34.9609C115.133 34.6065 115.562 34.0407 115.848 33.2637L116.038 32.7593L110.079 17.2864H112.94L117.591 29.801L122.297 17.2864H125.089Z" fill="#FCFBFC"/>
<path d="M129.302 32.3162H126.543V17.2864H129.302V21.6283C129.483 20.8876 129.744 20.2242 130.085 19.638C130.425 19.0518 130.834 18.5542 131.311 18.1452C131.787 17.7363 132.325 17.4227 132.925 17.2046C133.529 16.9865 134.18 16.8774 134.879 16.8774C135.733 16.8774 136.498 17.0387 137.174 17.3614C137.851 17.684 138.423 18.1498 138.891 18.7587C139.363 19.3631 139.721 20.1015 139.967 20.974C140.216 21.8419 140.341 22.8212 140.341 23.9118V32.3162H137.583V23.9118C137.583 22.4031 137.263 21.2693 136.623 20.5105C135.983 19.7516 135.018 19.3722 133.728 19.3722C133.034 19.3722 132.412 19.4812 131.862 19.6993C131.317 19.9129 130.854 20.2265 130.473 20.64C130.096 21.049 129.806 21.5534 129.601 22.1532C129.402 22.7485 129.302 23.4255 129.302 24.1844V32.3162Z" fill="#FCFBFC"/>
<path d="M145.993 32.3162H142.52V28.6354H145.993V32.3162Z" fill="#FCFBFC"/>
<path d="M148.286 22.5213C148.286 21.6579 148.444 20.8785 148.762 20.1833C149.08 19.488 149.534 18.895 150.124 18.4042C150.719 17.9135 151.436 17.5363 152.276 17.2728C153.121 17.0092 154.07 16.8774 155.123 16.8774C156.236 16.8774 157.232 17.0274 158.113 17.3273C158.994 17.6227 159.741 18.0498 160.354 18.6087C160.966 19.1677 161.436 19.8516 161.763 20.6604C162.09 21.4647 162.254 22.3781 162.254 23.4006V32.3162H159.495V28.2742C159.314 28.9649 159.037 29.5852 158.665 30.135C158.297 30.6848 157.847 31.1529 157.316 31.5392C156.789 31.9209 156.188 32.214 155.511 32.4184C154.835 32.6229 154.102 32.7252 153.312 32.7252C152.49 32.7252 151.743 32.6161 151.071 32.398C150.399 32.1799 149.822 31.8731 149.341 31.4778C148.864 31.0825 148.494 30.6076 148.231 30.0532C147.972 29.4943 147.843 28.874 147.843 28.1924C147.843 27.5062 147.977 26.8882 148.245 26.3384C148.517 25.7885 148.905 25.3227 149.409 24.941C149.918 24.5548 150.533 24.2594 151.255 24.0549C151.981 23.8504 152.796 23.7482 153.7 23.7482H159.495V23.4006C159.495 22.7825 159.391 22.2259 159.182 21.7306C158.978 21.2307 158.685 20.8081 158.304 20.4628C157.922 20.1129 157.459 19.8447 156.914 19.6584C156.369 19.4721 155.757 19.379 155.075 19.379C154.381 19.379 153.779 19.454 153.271 19.6039C152.767 19.7539 152.349 19.9674 152.018 20.2446C151.691 20.5173 151.446 20.8467 151.282 21.233C151.123 21.6192 151.044 22.0487 151.044 22.5213H148.286ZM153.673 26.0657C152.651 26.0657 151.877 26.2384 151.35 26.5837C150.828 26.9246 150.567 27.4312 150.567 28.1038C150.567 28.4582 150.642 28.774 150.792 29.0512C150.946 29.3284 151.171 29.5602 151.466 29.7465C151.761 29.9328 152.124 30.0759 152.556 30.1759C152.992 30.2713 153.491 30.319 154.054 30.319C154.853 30.319 155.584 30.2259 156.247 30.0396C156.914 29.8487 157.489 29.5852 157.97 29.2489C158.451 28.9081 158.826 28.5037 159.094 28.0356C159.361 27.563 159.495 27.045 159.495 26.4815V26.0657H153.673Z" fill="#FCFBFC"/>
<path d="M167.199 15.5482H164.305V12.1401H167.199V15.5482ZM167.131 32.3162H164.373V17.2864H167.131V32.3162Z" fill="#FCFBFC"/>
<path d="M29.633 0H50.5839L42.0449 13.8822H21.0331L29.633 0Z" fill="#FCFBFC"/>
<path d="M4.2427 13.8822L4.2427 28.9268H21.0331V13.8822L4.2427 13.8822Z" fill="#FCFBFC"/>
<path d="M20.9508 50L0 50L8.53899 36.1178H29.5508L20.9508 50Z" fill="#FCFBFC"/>
<path d="M46.3412 36.1178L46.3412 21.0732H29.5508L29.5508 36.1178H46.3412Z" fill="#FCFBFC"/>
</svg>
