<svg width="168" height="50" viewBox="0 0 168 50" fill="none" xmlns="http://www.w3.org/2000/svg">
<path d="M29.633 0H50.5839L42.0449 13.8822H21.0331L29.633 0Z" fill="#FF310C"/>
<path d="M4.2427 13.8822L4.2427 28.9268H21.0331V13.8822L4.2427 13.8822Z" fill="#FF310C"/>
<path d="M20.9508 50L0 50L8.53899 36.1178H29.5508L20.9508 50Z" fill="#FF310C"/>
<path d="M46.3412 36.1178L46.3412 21.0732H29.5508L29.5508 36.1178H46.3412Z" fill="#FF310C"/>
<path d="M65.1967 16.8614C66.2183 16.8614 67.1263 16.9773 67.9209 17.209C68.72 17.4408 69.3919 17.7725 69.9367 18.2042C70.4861 18.6314 70.9038 19.1517 71.1899 19.7651C71.4759 20.374 71.6189 21.0579 71.6189 21.8168H68.922C68.922 21.4306 68.8403 21.0807 68.6768 20.7671C68.5179 20.449 68.2796 20.1786 67.9617 19.956C67.6485 19.7288 67.2603 19.5538 66.7972 19.4311C66.3341 19.3084 65.8006 19.2471 65.1967 19.2471C64.6519 19.2471 64.1547 19.2971 63.7053 19.397C63.2603 19.497 62.8767 19.6402 62.5543 19.8265C62.2319 20.0082 61.9822 20.2286 61.8052 20.4876C61.6281 20.7421 61.5396 21.0261 61.5396 21.3397C61.5396 21.576 61.5895 21.785 61.6894 21.9668C61.7893 22.144 61.9255 22.2985 62.098 22.4303C62.2705 22.5621 62.4726 22.6757 62.7041 22.7711C62.9357 22.862 63.1831 22.9415 63.4465 23.0097C63.7143 23.0778 63.9913 23.1369 64.2773 23.1869C64.5634 23.2323 64.8449 23.2778 65.1218 23.3232L66.1298 23.48C66.5475 23.5436 66.9856 23.6186 67.4442 23.7049C67.9073 23.7867 68.3613 23.898 68.8062 24.0389C69.2557 24.1752 69.6825 24.3502 70.0866 24.5638C70.4952 24.7728 70.8539 25.0364 71.1626 25.3544C71.4713 25.6725 71.7165 26.0542 71.8981 26.4996C72.0797 26.9404 72.1705 27.4652 72.1705 28.0741C72.1705 28.8148 72.0253 29.4737 71.7347 30.0508C71.4441 30.6234 71.0151 31.1074 70.4475 31.5027C69.88 31.898 69.1785 32.198 68.3431 32.4024C67.5077 32.6069 66.5429 32.7092 65.4487 32.7092C64.3091 32.7092 63.3103 32.5978 62.4521 32.3752C61.594 32.1525 60.879 31.8253 60.3069 31.3936C59.7348 30.9619 59.3035 30.4325 59.0129 29.8055C58.7269 29.1738 58.5839 28.449 58.5839 27.6311H61.274C61.274 28.4945 61.6145 29.1602 62.2955 29.6282C62.9765 30.0917 64.0253 30.3235 65.4419 30.3235C66.0821 30.3235 66.6519 30.2758 67.1513 30.1803C67.6507 30.0849 68.073 29.944 68.418 29.7577C68.7631 29.5714 69.0264 29.3419 69.208 29.0693C69.3896 28.7966 69.4805 28.4854 69.4805 28.1355C69.4805 27.8628 69.4282 27.6243 69.3238 27.4198C69.2194 27.2107 69.0741 27.0312 68.8879 26.8813C68.7018 26.7268 68.4816 26.595 68.2273 26.4859C67.9776 26.3723 67.7052 26.2746 67.4101 26.1928C67.115 26.111 66.8062 26.0406 66.4839 25.9815C66.1661 25.9179 65.8437 25.8588 65.5168 25.8043L64.5157 25.6339C64.1343 25.5703 63.7302 25.4976 63.3034 25.4158C62.8767 25.3295 62.4522 25.2227 62.0299 25.0954C61.6122 24.9636 61.2104 24.8001 60.8245 24.6047C60.4431 24.4047 60.1048 24.1593 59.8097 23.8685C59.5192 23.5777 59.2853 23.23 59.1083 22.8256C58.9357 22.4212 58.8495 21.9463 58.8495 21.401C58.8495 20.7103 58.9948 20.0855 59.2853 19.5266C59.5804 18.9676 60.0004 18.4905 60.5452 18.0951C61.0946 17.6998 61.7598 17.3953 62.5407 17.1818C63.3261 16.9682 64.2115 16.8614 65.1967 16.8614Z" fill="#030303"/>
<path d="M73.4656 24.7819C73.4656 23.9912 73.545 23.246 73.7039 22.5462C73.8629 21.8463 74.0921 21.2034 74.3918 20.6172C74.6914 20.031 75.0569 19.5061 75.4883 19.0426C75.9196 18.5746 76.4054 18.1792 76.9457 17.8566C77.4905 17.5339 78.0876 17.2886 78.7368 17.1204C79.3861 16.9477 80.0762 16.8614 80.8072 16.8614C81.5427 16.8614 82.2328 16.9477 82.8775 17.1204C83.5268 17.2886 84.1215 17.5339 84.6618 17.8566C85.2067 18.1792 85.6947 18.5746 86.1261 19.0426C86.5574 19.5061 86.9229 20.031 87.2225 20.6172C87.5222 21.2034 87.7515 21.8463 87.9104 22.5462C88.0693 23.246 88.1487 23.9912 88.1487 24.7819C88.1487 25.5726 88.0693 26.3178 87.9104 27.0176C87.7515 27.7174 87.5222 28.3627 87.2225 28.9534C86.9229 29.5396 86.5574 30.0645 86.1261 30.528C85.6947 30.9915 85.2067 31.3868 84.6618 31.714C84.1215 32.0366 83.5268 32.282 82.8775 32.4502C82.2328 32.6228 81.5427 32.7092 80.8072 32.7092C80.0762 32.7092 79.3861 32.6228 78.7368 32.4502C78.0876 32.282 77.4905 32.0366 76.9457 31.714C76.4054 31.3868 75.9196 30.9915 75.4883 30.528C75.0569 30.0645 74.6914 29.5396 74.3918 28.9534C74.0921 28.3627 73.8629 27.7174 73.7039 27.0176C73.545 26.3178 73.4656 25.5726 73.4656 24.7819ZM76.2238 24.7819C76.2238 25.6225 76.3282 26.3792 76.5371 27.0517C76.7505 27.7197 77.0546 28.29 77.4496 28.7626C77.8492 29.2306 78.3327 29.5896 78.9003 29.8395C79.4678 30.0895 80.1057 30.2144 80.814 30.2144C81.5223 30.2144 82.1579 30.0895 82.7209 29.8395C83.2884 29.5896 83.7697 29.2306 84.1647 28.7626C84.5597 28.29 84.8616 27.7197 85.0705 27.0517C85.2838 26.3792 85.3905 25.6225 85.3905 24.7819C85.3905 23.9412 85.2838 23.1869 85.0705 22.5189C84.8616 21.8464 84.5597 21.2761 84.1647 20.808C83.7697 20.34 83.2884 19.981 82.7209 19.731C82.1579 19.4811 81.5223 19.3561 80.814 19.3561C80.1057 19.3561 79.4678 19.4811 78.9003 19.731C78.3327 19.981 77.8492 20.34 77.4496 20.808C77.0546 21.2761 76.7505 21.8464 76.5371 22.5189C76.3282 23.1869 76.2238 23.9412 76.2238 24.7819Z" fill="#030303"/>
<path d="M92.7389 32.3002H89.9807V12.1241H92.7389V32.3002Z" fill="#030303"/>
<path d="M109.224 17.2704L103.837 32.3002H99.5463L94.2138 17.2704H97.0742L101.726 30.5893L106.432 17.2704H109.224Z" fill="#030303"/>
<path d="M124.999 17.2704L118.782 33.2477C118.468 34.0474 118.103 34.7381 117.685 35.3198C117.272 35.9014 116.795 36.3809 116.255 36.758C115.719 37.1397 115.118 37.4215 114.45 37.6032C113.787 37.785 113.05 37.8759 112.237 37.8759C112.014 37.8759 111.799 37.8691 111.59 37.8554C111.381 37.8418 111.179 37.8236 110.984 37.8009V35.388C111.224 35.4198 111.447 35.4425 111.651 35.4561C111.86 35.4697 112.06 35.4766 112.25 35.4766C113.158 35.4766 113.899 35.2993 114.471 34.9449C115.043 34.5905 115.472 34.0247 115.758 33.2477L115.948 32.7433L109.989 17.2704H112.85L117.501 29.785L122.207 17.2704H124.999Z" fill="#030303"/>
<path d="M129.212 32.3002H126.453V17.2704H129.212V21.6123C129.393 20.8716 129.654 20.2082 129.995 19.622C130.335 19.0358 130.744 18.5382 131.221 18.1292C131.697 17.7202 132.235 17.4067 132.835 17.1886C133.439 16.9705 134.09 16.8614 134.789 16.8614C135.643 16.8614 136.408 17.0227 137.084 17.3454C137.761 17.668 138.333 18.1338 138.801 18.7427C139.273 19.3471 139.632 20.0855 139.877 20.958C140.126 21.8259 140.251 22.8052 140.251 23.8958V32.3002H137.493V23.8958C137.493 22.3871 137.173 21.2533 136.533 20.4945C135.893 19.7356 134.928 19.3561 133.638 19.3561C132.944 19.3561 132.322 19.4652 131.772 19.6833C131.228 19.8969 130.764 20.2105 130.383 20.624C130.006 21.0329 129.716 21.5373 129.511 22.1372C129.312 22.7325 129.212 23.4095 129.212 24.1684V32.3002Z" fill="#030303"/>
<path d="M145.903 32.3002H142.43V28.6194H145.903V32.3002Z" fill="#030303"/>
<path d="M148.196 22.5053C148.196 21.6419 148.354 20.8625 148.672 20.1673C148.99 19.472 149.444 18.879 150.034 18.3882C150.629 17.8975 151.346 17.5203 152.186 17.2567C153.031 16.9932 153.98 16.8614 155.033 16.8614C156.146 16.8614 157.142 17.0114 158.023 17.3113C158.904 17.6066 159.651 18.0338 160.264 18.5927C160.876 19.1517 161.346 19.8356 161.673 20.6444C162 21.4487 162.164 22.3621 162.164 23.3845V32.3002H159.405V28.2582C159.224 28.9489 158.947 29.5692 158.575 30.119C158.207 30.6688 157.757 31.1369 157.226 31.5231C156.699 31.9049 156.098 32.198 155.421 32.4024C154.745 32.6069 154.012 32.7092 153.222 32.7092C152.4 32.7092 151.653 32.6001 150.981 32.382C150.309 32.1639 149.732 31.8571 149.251 31.4618C148.774 31.0665 148.404 30.5916 148.141 30.0372C147.882 29.4783 147.753 28.858 147.753 28.1764C147.753 27.4902 147.887 26.8722 148.155 26.3223C148.427 25.7725 148.815 25.3067 149.319 24.925C149.828 24.5388 150.443 24.2434 151.165 24.0389C151.891 23.8344 152.706 23.7322 153.61 23.7322H159.405V23.3845C159.405 22.7665 159.301 22.2099 159.092 21.7146C158.888 21.2147 158.595 20.7921 158.214 20.4467C157.832 20.0968 157.369 19.8287 156.824 19.6424C156.279 19.4561 155.667 19.363 154.986 19.363C154.291 19.363 153.689 19.4379 153.181 19.5879C152.677 19.7379 152.259 19.9514 151.928 20.2286C151.601 20.5013 151.356 20.8307 151.192 21.217C151.033 21.6032 150.954 22.0327 150.954 22.5053H148.196ZM153.583 26.0497C152.561 26.0497 151.787 26.2224 151.26 26.5677C150.738 26.9085 150.477 27.4152 150.477 28.0878C150.477 28.4422 150.552 28.758 150.702 29.0352C150.856 29.3124 151.081 29.5442 151.376 29.7305C151.671 29.9168 152.034 30.0599 152.466 30.1599C152.902 30.2553 153.401 30.303 153.964 30.303C154.763 30.303 155.494 30.2099 156.157 30.0236C156.824 29.8327 157.399 29.5692 157.88 29.2329C158.361 28.8921 158.736 28.4876 159.004 28.0196C159.271 27.547 159.405 27.029 159.405 26.4655V26.0497H153.583Z" fill="#030303"/>
<path d="M167.109 15.5322H164.215V12.1241H167.109V15.5322ZM167.041 32.3002H164.283V17.2704H167.041V32.3002Z" fill="#030303"/>
</svg>
