<svg width="44" height="44" viewBox="0 0 44 44" fill="none" xmlns="http://www.w3.org/2000/svg">
<path d="M18.1945 29.1111H25.4723M16.3751 12.736L14.5556 5.45825M27.2918 12.736L29.1112 5.45825M12.7362 12.736H30.9307C31.8957 12.736 32.8213 13.1194 33.5037 13.8019C34.1862 14.4843 34.5696 15.4098 34.5696 16.3749V18.1944L36.389 20.0138V25.4722L34.5696 27.2916V32.75C34.5696 33.7151 34.1862 34.6406 33.5037 35.3231C32.8213 36.0055 31.8957 36.3889 30.9307 36.3889H12.7362C11.7711 36.3889 10.8455 36.0055 10.1631 35.3231C9.48066 34.6406 9.09728 33.7151 9.09728 32.75V27.2916L7.27783 25.4722V20.0138L9.09728 18.1944V16.3749C9.09728 15.4098 9.48066 14.4843 10.1631 13.8019C10.8455 13.1194 11.7711 12.736 12.7362 12.736ZM16.3751 20.9236C16.3751 21.426 15.9678 21.8333 15.4653 21.8333C14.9629 21.8333 14.5556 21.426 14.5556 20.9236C14.5556 20.4211 14.9629 20.0138 15.4653 20.0138C15.9678 20.0138 16.3751 20.4211 16.3751 20.9236ZM29.1112 20.9236C29.1112 21.426 28.7039 21.8333 28.2015 21.8333C27.6991 21.8333 27.2918 21.426 27.2918 20.9236C27.2918 20.4211 27.6991 20.0138 28.2015 20.0138C28.7039 20.0138 29.1112 20.4211 29.1112 20.9236Z" stroke="#FF310C" stroke-width="3.6389" stroke-linecap="round" stroke-linejoin="round"/>
</svg>
