<svg width="45" height="45" viewBox="0 0 45 45" fill="none" xmlns="http://www.w3.org/2000/svg">
<path d="M13.0278 26.0555C11.0908 27.149 9.5245 28.7961 8.52974 30.7856C7.53498 32.7752 7.15705 35.0165 7.44442 37.2222C9.65013 37.5095 11.8914 37.1316 13.8809 36.1368C15.8705 35.1421 17.5176 33.5758 18.6111 31.6388M7.44443 24.1944C10.763 24.5888 13.8523 26.0881 16.2154 28.4512C18.5785 30.8143 20.0778 33.9036 20.4722 37.2222C22.1173 36.2738 23.4934 34.9215 24.4703 33.2932C25.4473 31.665 25.9929 29.8144 26.0556 27.9166C29.1806 26.8173 31.9095 24.816 33.8971 22.1658C35.8847 19.5156 37.0419 16.3355 37.2223 13.0277C37.2223 11.5469 36.634 10.1267 35.5869 9.07966C34.5399 8.03258 33.1197 7.44434 31.6389 7.44434C28.3311 7.62469 25.151 8.78185 22.5008 10.7695C19.8506 12.7571 17.8493 15.486 16.75 18.611C14.8522 18.6737 13.0016 19.2193 11.3734 20.1963C9.74509 21.1732 8.39284 22.5493 7.44443 24.1944ZM26.0556 16.7499C26.0556 17.2435 26.2517 17.7169 26.6007 18.0659C26.9497 18.4149 27.4231 18.611 27.9167 18.611C28.4103 18.611 28.8837 18.4149 29.2327 18.0659C29.5817 17.7169 29.7778 17.2435 29.7778 16.7499C29.7778 16.2563 29.5817 15.7829 29.2327 15.4339C28.8837 15.0849 28.4103 14.8888 27.9167 14.8888C27.4231 14.8888 26.9497 15.0849 26.6007 15.4339C26.2517 15.7829 26.0556 16.2563 26.0556 16.7499Z" stroke="#FF310C" stroke-width="3.72223" stroke-linecap="round" stroke-linejoin="round"/>
</svg>
