<svg width="170" height="90" viewBox="0 0 170 90" fill="none" xmlns="http://www.w3.org/2000/svg">
<path d="M79.4223 19.9892H95.2742C96.6756 19.9892 98.0196 19.4627 99.0106 18.5255C100.002 17.5884 100.558 16.3173 100.558 14.9919V9.99461C100.558 7.34387 101.672 4.8017 103.654 2.92735C105.635 1.053 108.323 0 111.126 0C113.929 0 116.617 1.053 118.599 2.92735C120.581 4.8017 121.694 7.34387 121.694 9.99461V14.9919C121.694 16.3173 122.251 17.5884 123.242 18.5255C124.233 19.4627 125.577 19.9892 126.978 19.9892H142.83C144.231 19.9892 145.575 20.5157 146.566 21.4529C147.557 22.3901 148.114 23.6611 148.114 24.9865V39.9784C148.114 41.3038 148.671 42.5749 149.662 43.512C150.653 44.4492 151.997 44.9757 153.398 44.9757H158.682C161.485 44.9757 164.173 46.0287 166.155 47.9031C168.137 49.7774 169.25 52.3196 169.25 54.9703C169.25 57.6211 168.137 60.1632 166.155 62.0376C164.173 63.9119 161.485 64.9649 158.682 64.9649H153.398C151.997 64.9649 150.653 65.4914 149.662 66.4286C148.671 67.3658 148.114 68.6369 148.114 69.9622V84.9542C148.114 86.2795 147.557 87.5506 146.566 88.4878C145.575 89.425 144.231 89.9515 142.83 89.9515H126.978C125.577 89.9515 124.233 89.425 123.242 88.4878C122.251 87.5506 121.694 86.2795 121.694 84.9542V79.9568C121.694 77.3061 120.581 74.7639 118.599 72.8896C116.617 71.0152 113.929 69.9622 111.126 69.9622C108.323 69.9622 105.635 71.0152 103.654 72.8896C101.672 74.7639 100.558 77.3061 100.558 79.9568V84.9542C100.558 86.2795 100.002 87.5506 99.0106 88.4878C98.0196 89.425 96.6756 89.9515 95.2742 89.9515H79.4223C78.0209 89.9515 76.6769 89.425 75.6859 88.4878C74.695 87.5506 74.1383 86.2795 74.1383 84.9542V69.9622C74.1383 68.6369 74.695 67.3658 75.6859 66.4286C76.6769 65.4914 78.0209 64.9649 79.4223 64.9649H84.7063C87.5091 64.9649 90.1971 63.9119 92.1789 62.0376C94.1608 60.1632 95.2742 57.6211 95.2742 54.9703C95.2742 52.3196 94.1608 49.7774 92.1789 47.9031C90.1971 46.0287 87.5091 44.9757 84.7063 44.9757H79.4223C78.0209 44.9757 76.6769 44.4492 75.6859 43.512C74.695 42.5749 74.1383 41.3038 74.1383 39.9784V24.9865C74.1383 23.6611 74.695 22.3901 75.6859 21.4529C76.6769 20.5157 78.0209 19.9892 79.4223 19.9892Z" fill="url(#paint0_radial_97_466)" fill-opacity="0.15"/>
<path d="M111.127 0.975586C113.687 0.975688 116.133 1.93811 117.928 3.63574C119.722 5.33178 120.718 7.62041 120.718 9.99414V14.9922C120.718 16.5943 121.393 18.1191 122.572 19.2344C123.749 20.3479 125.335 20.9648 126.978 20.9648H142.83C143.989 20.9648 145.092 21.4014 145.896 22.1621C146.698 22.921 147.138 23.938 147.138 24.9863V39.9785C147.138 41.5807 147.812 43.1053 148.992 44.2207C150.169 45.3342 151.755 45.9512 153.398 45.9512H158.682C161.243 45.9512 163.689 46.9145 165.484 48.6123C167.277 50.3084 168.274 52.5968 168.274 54.9707C168.274 57.3445 167.277 59.633 165.484 61.3291C163.689 63.0267 161.243 63.9892 158.682 63.9893H153.398C151.755 63.9893 150.169 64.6063 148.992 65.7197C147.813 66.835 147.138 68.3598 147.138 69.9619V84.9541C147.138 86.0026 146.699 87.0203 145.896 87.7793C145.092 88.5399 143.989 88.9756 142.83 88.9756H126.978C125.818 88.9756 124.716 88.54 123.912 87.7793C123.109 87.0203 122.67 86.0026 122.67 84.9541V79.957C122.67 77.0295 121.439 74.2332 119.269 72.1807C117.101 70.13 114.171 68.9864 111.127 68.9863C108.082 68.9863 105.151 70.1299 102.983 72.1807C100.813 74.2332 99.5826 77.0295 99.5826 79.957V84.9541C99.5826 86.0026 99.143 87.0203 98.3405 87.7793C97.5361 88.54 96.4337 88.9756 95.274 88.9756H79.4225C78.2628 88.9756 77.1604 88.54 76.3561 87.7793C75.5536 87.0203 75.1139 86.0026 75.1139 84.9541V69.9619C75.114 68.9136 75.5538 67.8966 76.3561 67.1377C77.1604 66.377 78.2628 65.9404 79.4225 65.9404H84.7067C87.751 65.9403 90.6809 64.7968 92.8492 62.7461C95.0194 60.6936 96.2495 57.8981 96.2496 54.9707C96.2496 52.0431 95.0196 49.2469 92.8492 47.1943C90.6809 45.1436 87.751 44.0001 84.7067 44H79.4225C78.2628 44 77.1604 43.5644 76.3561 42.8037C75.5536 42.0448 75.1139 41.027 75.1139 39.9785V24.9863C75.1139 23.938 75.5538 22.921 76.3561 22.1621C77.1604 21.4014 78.2628 20.9648 79.4225 20.9648H95.274C96.9172 20.9648 98.5038 20.348 99.6813 19.2344C100.86 18.1191 101.534 16.5942 101.534 14.9922V9.99414C101.534 7.62041 102.531 5.33178 104.324 3.63574C106.119 1.93797 108.566 0.975586 111.127 0.975586Z" stroke="white" stroke-opacity="0.15" stroke-width="1.95101" stroke-linecap="round" stroke-linejoin="round"/>
<path d="M5.28398 19.9892H21.1359C22.5373 19.9892 23.8813 19.4627 24.8723 18.5255C25.8632 17.5884 26.4199 16.3173 26.4199 14.9919V9.99461C26.4199 7.34387 27.5333 4.8017 29.5152 2.92735C31.4971 1.053 34.1851 0 36.9879 0C39.7907 0 42.4787 1.053 44.4605 2.92735C46.4424 4.8017 47.5558 7.34387 47.5558 9.99461V14.9919C47.5558 16.3173 48.1125 17.5884 49.1035 18.5255C50.0944 19.4627 51.4384 19.9892 52.8398 19.9892H68.6918C70.0932 19.9892 71.4372 20.5157 72.4281 21.4529C73.419 22.3901 73.9757 23.6611 73.9757 24.9865V39.9784C73.9757 41.3038 74.5324 42.5749 75.5234 43.512C76.5143 44.4492 77.8583 44.9757 79.2597 44.9757H84.5437C87.3465 44.9757 90.0345 46.0287 92.0164 47.9031C93.9983 49.7774 95.1117 52.3196 95.1117 54.9703C95.1117 57.6211 93.9983 60.1632 92.0164 62.0376C90.0345 63.9119 87.3465 64.9649 84.5437 64.9649H79.2597C77.8583 64.9649 76.5143 65.4914 75.5234 66.4286C74.5324 67.3658 73.9757 68.6369 73.9757 69.9622V84.9542C73.9757 86.2795 73.419 87.5506 72.4281 88.4878C71.4372 89.425 70.0932 89.9515 68.6918 89.9515H52.8398C51.4384 89.9515 50.0944 89.425 49.1035 88.4878C48.1125 87.5506 47.5558 86.2795 47.5558 84.9542V79.9568C47.5558 77.3061 46.4424 74.7639 44.4605 72.8896C42.4787 71.0152 39.7907 69.9622 36.9879 69.9622C34.1851 69.9622 31.4971 71.0152 29.5152 72.8896C27.5333 74.7639 26.4199 77.3061 26.4199 79.9568V84.9542C26.4199 86.2795 25.8632 87.5506 24.8723 88.4878C23.8813 89.425 22.5373 89.9515 21.1359 89.9515H5.28398C3.88258 89.9515 2.53858 89.425 1.54764 88.4878C0.556703 87.5506 0 86.2795 0 84.9542V69.9622C0 68.6369 0.556703 67.3658 1.54764 66.4286C2.53858 65.4914 3.88258 64.9649 5.28398 64.9649H10.568C13.3708 64.9649 16.0588 63.9119 18.0406 62.0376C20.0225 60.1632 21.1359 57.6211 21.1359 54.9703C21.1359 52.3196 20.0225 49.7774 18.0406 47.9031C16.0588 46.0287 13.3708 44.9757 10.568 44.9757H5.28398C3.88258 44.9757 2.53858 44.4492 1.54764 43.512C0.556703 42.5749 0 41.3038 0 39.9784V24.9865C0 23.6611 0.556703 22.3901 1.54764 21.4529C2.53858 20.5157 3.88258 19.9892 5.28398 19.9892Z" fill="#FF310C"/>
<path d="M36.9883 1C39.5432 1.0001 41.9829 1.96093 43.7734 3.6543C45.5619 5.34584 46.5555 7.62745 46.5557 9.99414V14.9922C46.5557 16.6011 47.2321 18.1322 48.416 19.252C49.5982 20.37 51.1907 20.9893 52.8398 20.9893H68.6914C69.845 20.9893 70.9415 21.4234 71.7412 22.1797C72.5388 22.9341 72.9755 23.9449 72.9756 24.9863V39.9785C72.9756 41.5875 73.6521 43.1185 74.8359 44.2383C76.0181 45.3563 77.6106 45.9756 79.2598 45.9756H84.5439C87.0989 45.9756 89.5385 46.9365 91.3291 48.6299C93.1178 50.3215 94.1113 52.6038 94.1113 54.9707C94.1112 57.3375 93.1177 59.6199 91.3291 61.3115C89.5386 63.0047 87.0987 63.9648 84.5439 63.9648H79.2598C77.6106 63.9648 76.0181 64.5841 74.8359 65.7021C73.652 66.8219 72.9757 68.353 72.9756 69.9619V84.9541C72.9756 85.9957 72.539 87.0072 71.7412 87.7617C70.9416 88.5179 69.845 88.9512 68.6914 88.9512H52.8398C51.6864 88.9512 50.5906 88.5177 49.791 87.7617C48.9932 87.0072 48.5557 85.9957 48.5557 84.9541V79.957C48.5557 77.0225 47.3225 74.2201 45.1475 72.1631C42.9744 70.108 40.0387 68.962 36.9883 68.9619C33.9377 68.9619 31.0013 70.1078 28.8281 72.1631C26.6531 74.2201 25.4199 77.0225 25.4199 79.957V84.9541C25.4199 85.9957 24.9833 87.0072 24.1855 87.7617C23.3859 88.518 22.2894 88.9512 21.1357 88.9512H5.28418C4.13057 88.9512 3.03404 88.518 2.23438 87.7617C1.4366 87.0072 1 85.9957 1 84.9541V69.9619L1.00488 69.7676C1.05575 68.7955 1.48656 67.8626 2.23438 67.1553C3.03404 66.399 4.13055 65.9648 5.28418 65.9648H10.5684C13.6188 65.9647 16.5545 64.8188 18.7275 62.7637C20.9024 60.7067 22.1356 57.905 22.1357 54.9707C22.1357 52.0362 20.9026 49.2338 18.7275 47.1768C16.5545 45.1216 13.6188 43.9757 10.5684 43.9756H5.28418C4.13056 43.9756 3.03405 43.5414 2.23438 42.7852C1.43686 42.0307 1.00003 41.0199 1 39.9785V24.9863L1.00488 24.792C1.05572 23.8199 1.48657 22.8871 2.23438 22.1797C3.03405 21.4234 4.13056 20.9893 5.28418 20.9893H21.1357C22.7849 20.9893 24.3774 20.37 25.5596 19.252C26.7435 18.1322 27.4198 16.6012 27.4199 14.9922V9.99414C27.4201 7.62749 28.4137 5.34583 30.2021 3.6543C31.9928 1.96084 34.4333 1 36.9883 1Z" stroke="white" stroke-opacity="0.1" stroke-width="2" stroke-linecap="round" stroke-linejoin="round"/>
<defs>
<radialGradient id="paint0_radial_97_466" cx="0" cy="0" r="1" gradientTransform="matrix(46.3365 19.3742 -20.4856 43.8225 118.524 41.5161)" gradientUnits="userSpaceOnUse">
<stop stop-opacity="0"/>
<stop offset="1" stop-color="white"/>
</radialGradient>
</defs>
</svg>
