<svg width="73" height="74" viewBox="0 0 73 74" fill="none" xmlns="http://www.w3.org/2000/svg">
<path d="M27.4123 1.16255C39.8651 -2.03123 52.6668 1.51573 61.5487 9.83468V5.73485C61.5488 2.57283 64.1122 0.00934563 67.2742 0.00934563C70.4363 0.00934563 72.9996 2.57283 72.9997 5.73485V24.9704C72.9997 28.1324 70.4363 30.6959 67.2742 30.6959H48.0387C44.8768 30.6957 42.3132 28.1323 42.3132 24.9704C42.3132 21.8084 44.8767 19.245 48.0387 19.2449H54.7706C48.6857 12.8104 39.3763 9.91542 30.2569 12.2543L30.2555 12.2529C25.8532 13.3862 21.8419 15.6984 18.6522 18.9373C15.4616 22.1773 13.2134 26.2248 12.1481 30.6455C11.0827 35.0666 11.2404 39.6945 12.6052 44.0325C13.9699 48.3705 16.4901 52.255 19.8948 55.2697C23.2995 58.2843 27.4604 60.3152 31.9315 61.1448C36.4027 61.9742 41.0158 61.5716 45.2752 59.979C49.5347 58.3861 53.2812 55.6634 56.1112 52.1036C58.941 48.5439 60.7477 44.2808 61.339 39.772C61.7502 36.6368 64.6255 34.4281 67.7607 34.839C70.8959 35.2502 73.1047 38.1254 72.6936 41.2606C71.832 47.8308 69.1976 54.0427 65.074 59.2297C60.9506 64.4165 55.4933 68.3836 49.287 70.7045C43.0803 73.0254 36.3584 73.6129 29.8432 72.4043C23.328 71.1956 17.2643 68.2353 12.3032 63.8426C7.34234 59.4499 3.67109 53.7892 1.68253 47.4684C-0.305987 41.1476 -0.536602 34.4049 1.01576 27.9631C2.56816 21.5211 5.84484 15.6225 10.4944 10.9012C15.1439 6.1803 20.991 2.81464 27.4082 1.16395L27.4123 1.16255Z" fill="url(#paint0_linear_99_194)"/>
<path d="M27.6738 2.12695C39.7857 -0.974547 52.2316 2.47807 60.8652 10.5645C61.1561 10.8368 61.5807 10.9104 61.9463 10.752C62.3118 10.5935 62.5487 10.2334 62.5488 9.83496V5.73535C62.5489 3.12556 64.6647 1.00977 67.2744 1.00977C69.8026 1.00987 71.8668 2.99525 71.9932 5.49219L72 5.73535V24.9707C71.9998 27.5803 69.884 29.6962 67.2744 29.6963H48.0391C45.4295 29.6962 43.3137 27.5802 43.3135 24.9707C43.3135 22.361 45.4293 20.2452 48.0391 20.2451H54.7705C55.1699 20.2451 55.5315 20.0074 55.6895 19.6406C55.8474 19.2738 55.7715 18.8478 55.4971 18.5576C49.1751 11.8726 39.5128 8.86427 30.0498 11.2754C30.0353 11.2784 30.0203 11.2805 30.0059 11.2842C25.4276 12.4628 21.2563 14.8674 17.9395 18.2354C14.6215 21.6047 12.2837 25.8141 11.1758 30.4111C10.0679 35.0086 10.2321 39.8218 11.6514 44.333C13.0706 48.844 15.691 52.8837 19.2314 56.0186C22.772 59.1535 27.0994 61.2652 31.749 62.1279C36.3984 62.9905 41.1956 62.5721 45.625 60.916C50.0546 59.2596 53.9506 56.4275 56.8936 52.7256C59.8363 49.0238 61.7151 44.5909 62.3301 39.9023C62.6694 37.3148 65.0433 35.4909 67.6309 35.8301C70.2185 36.1695 72.0414 38.5433 71.7021 41.1309C70.8641 47.5209 68.3016 53.5625 64.291 58.6074C60.2805 63.6521 54.9727 67.5103 48.9365 69.7676C42.9 72.0249 36.3621 72.5965 30.0254 71.4209C23.6888 70.2453 17.791 67.3662 12.9658 63.0938C8.14101 58.8215 4.57079 53.3155 2.63672 47.168C0.702742 41.0204 0.478469 34.4625 1.98828 28.1973C3.49818 21.9318 6.68489 16.1944 11.207 11.6025C15.729 7.01117 21.416 3.73828 27.6572 2.13281C27.6628 2.13137 27.6682 2.1285 27.6738 2.12695Z" stroke="white" stroke-opacity="0.1" stroke-width="2" stroke-linecap="round" stroke-linejoin="round"/>
<defs>
<linearGradient id="paint0_linear_99_194" x1="-0.000438541" y1="37.2154" x2="72.9997" y2="37.2154" gradientUnits="userSpaceOnUse">
<stop stop-color="white" stop-opacity="0.1"/>
<stop offset="1" stop-color="#FF310C"/>
</linearGradient>
</defs>
</svg>
